<svg width="24" height="24" viewBox="0 0 24 24" fill="#FF3B30" xmlns="http://www.w3.org/2000/svg">
    <path d="M8.99333 4.8977C9.15677 4.5403 9.54512 4.23203 9.92908 4.15488C10.1215 4.11622 13.8491 4.11453 14.0474 4.15301C14.5873 4.25777 15.0233 4.70391 15.1257 5.25636C15.1425 5.3474 15.1563 5.54408 15.1563 5.69342V5.96497L16.6218 5.97376C18.0484 5.98231 18.0909 5.98431 18.227 6.04866C18.4061 6.13337 18.6017 6.33387 18.6833 6.51627C18.7722 6.71492 18.7722 7.06502 18.6833 7.26367C18.6017 7.44607 18.4061 7.64656 18.227 7.73128L18.0872 7.79738H12H5.91276L5.77301 7.73128C5.59394 7.64656 5.39825 7.44607 5.31667 7.26367C5.22778 7.06502 5.22778 6.71492 5.31667 6.51627C5.39825 6.33387 5.59394 6.13337 5.77301 6.04866C5.90907 5.98431 5.9516 5.98231 7.37821 5.97376L8.84366 5.96497V5.69342C8.84366 5.34719 8.8827 5.13959 8.99333 4.8977Z" />
    <path d="M6.57494 13.6725C6.36881 11.101 6.19323 8.93819 6.18478 8.86628L6.16942 8.73555H12H17.8306L17.8152 8.86628C17.8068 8.93819 17.6312 11.101 17.4251 13.6725C17.2189 16.244 17.0358 18.4656 17.0181 18.6094C16.9435 19.2149 16.5388 19.692 15.9869 19.8252C15.7116 19.8916 8.28844 19.8916 8.01315 19.8252C7.46121 19.692 7.05653 19.2149 6.98192 18.6094C6.96422 18.4656 6.78106 16.244 6.57494 13.6725Z" />
</svg>